<svg xmlns="http://www.w3.org/2000/svg" xmlns:xlink="http://www.w3.org/1999/xlink" style="isolation:isolate" viewBox="0 0 5 5" version="1.1" shape-rendering="crispEdges" width="100" height="100"><path d="M0 4h2v1H0V4zm3 0h2v1H3V4z" fill-rule="evenodd" fill="#00897B"/><path d="M1 3h3v1H1V3z" fill="#00897B"/><path d="M0 2h1v1H0V2zm4 0h1v1H4V2z" fill-rule="evenodd" fill="#00897B"/><path d="M0 1h2v1H0V1zm3 0h2v1H3V1z" fill-rule="evenodd" fill="#00897B"/><path d="M0 0h1v1H0V0zm2 0h1v1H2V0zm2 0h1v1H4V0z" fill-rule="evenodd" fill="#00897B"/></svg>