<svg xmlns="http://www.w3.org/2000/svg" xmlns:xlink="http://www.w3.org/1999/xlink" style="isolation:isolate" viewBox="0 0 5 5" version="1.1" shape-rendering="crispEdges" width="100" height="100"><path d="M0 4h1v1H0V4zm4 0h1v1H4V4z" fill-rule="evenodd" fill="#F4511E"/><path d="M0 3h1v1H0V3zm2 0h1v1H2V3zm2 0h1v1H4V3z" fill-rule="evenodd" fill="#F4511E"/><path d="M0 2h1v1H0V2zm2 0h1v1H2V2zm2 0h1v1H4V2z" fill-rule="evenodd" fill="#F4511E"/><path d="M0 1h1v1H0V1zm2 0h1v1H2V1zm2 0h1v1H4V1z" fill-rule="evenodd" fill="#F4511E"/><path d="M0 0h5v1H0V0z" fill="#F4511E"/></svg>